<svg version="1" xmlns="http://www.w3.org/2000/svg" width="2100" height="2100" viewBox="0 0 1575.000000 1575.000000"><path d="M931.2 6.7c-1.3 2.7-4 6.3-5.9 7.9-1.9 1.6-4.2 3.7-5.2 4.6-4.3 4.5-6.1 6.8-5.4 6.8.4 0 0 .5-.9 1.1-1 .5-1.8 1.6-1.8 2.3 0 .8-.7 2-1.6 2.7-1.8 1.4-8.7 11.3-17.1 24.2-2.9 4.5-5.8 8.4-6.4 8.8-.6.3-1 .9-.9 1.3.2 1.1-3.4 6.6-4.3 6.6-.4 0-.5.4-.2 1 .3.5.1 1-.5 1s-.9.4-.6.9c.3.4-.3 1.6-1.4 2.6-1.1 1-2 2.4-2 3.2 0 .7-.4 1.3-.8 1.3s-1.3 1.2-1.9 2.7c-.7 1.6-2.8 5.5-4.8 8.8-1.9 3.3-4.3 7.5-5.2 9.2-.9 1.8-2 3.3-2.5 3.3-.4 0-.8.9-.8 2s-.4 2-.9 2-1.5 1.5-2.1 3.4c-.6 1.9-1.8 4-2.6 4.6-.7.7-1.4 2.1-1.4 3 0 1-.3 2-.7 2.2-.5.2-1.7 2-2.8 4-2.1 4-3.9 4.9-4.1 2-.1-.9-.4-2.4-.8-3.3-.4-.9-.8-2.7-1-4-.2-1.3-.7-3.2-1.1-4.2-.4-1-.5-2-.2-2.4.4-.3 0-1.8-.9-3.4-.8-1.6-1.2-2.9-.8-2.9.4 0 .2-.6-.4-1.3-.6-.6-1.1-1.5-1.1-2-.1-.4-.2-1-.2-1.5-.1-.4-.2-3.6-.3-7.2-.1-6 .1-6.7 3.2-10 4.8-5.1 7.5-9 6.3-9-.6 0-1.1.4-1.1 1 0 .5-.7 1-1.5 1-.7 0-1.8.6-2.2 1.3-.4.7-2.1 2.3-3.8 3.6-1.6 1.2-3 2.6-3.1 2.9 0 .4-.6 2-1.2 3.5-.7 1.6-1.5 4.6-1.8 6.8-.4 2.1-1 3.9-1.5 3.9s-.8.3-.7.7c.4 1.1-7.8 12.4-8.4 11.7-.3-.2-.4-2.4-.2-4.9.2-2.4-.1-4.7-.7-5.1-.6-.3-.9 0-.8.7.1.8 0 2.1-.4 2.9-1 2.7-1.8 7.4-1.7 10.2 0 1.6-.5 2.8-1 2.8-.6 0-.8.5-.4 1.1.3.6.2 1.4-.4 1.8-1.2.7-12.7 23.3-12.4 24.3.1.5-.2.8-.8.8-.5 0-1 .6-1 1.4 0 .8-.5 1.8-1.1 2.2-.7.4-1-.4-.8-2.2.1-1.6-.1-3.6-.4-4.4-.7-1.7-1.9-9.1-2.1-13.3 0-1.5-.4-2.7-.8-2.7s-.6-1.2-.6-2.8c.1-1.5-.1-3.8-.5-5.2-.5-2.2-1-5.3-2.1-14-.2-1.4-.4-2.5-.5-2.5-.3 0-.7-3.3-1.5-12-.3-3.2-1-6.3-1.5-6.8s-.7-1.6-.4-2.3c.3-.8 0-2-.6-2.8-.6-.7-.8-1.5-.5-1.9.3-.3-.2-5.2-1.1-10.9-1-5.6-1.9-12.3-2.1-14.8-.5-4.9-1.1-9.2-1.5-10-.1-.3-.3-1-.4-1.5-.1-.6-.9-2.5-1.7-4.4-.9-1.9-1.5-4.5-1.3-5.8.1-1.3-.2-2.3-.8-2.3-.6 0-.7-.3-.4-.7.4-.3-.3-2.1-1.4-4-1.1-1.8-1.7-3.3-1.2-3.3.4 0 0-.7-1.1-1.5-1-.7-1.5-1.8-1.2-2.3.3-.6.2-1.2-.3-1.4-.5-.1-1.1-2.1-1.5-4.3-.3-2.2-.5-4.1-.6-4.3 0-.1-1.8-.2-4-.2-3.2 0-3.9.3-3.8 1.7.4 2.8-1.2 11.3-2.1 11.3-1.1 0-6.6 12.1-6.3 13.7.2.7-.1 1.3-.6 1.3s-.9.6-1 1.2c-.4 2.9-1 5.4-1.6 6.9-.4.9-.8 2.9-1 4.5-.2 1.6-.5 2.9-.6 2.9-.1 0-.3 1.3-.6 3-.5 4.2-3.1 18-3.4 18-.1 0-.4 1.6-.6 3.5-.9 8.7-1.6 12.5-2.2 13-.4.3-.7 2.4-.7 4.7.1 2.4-.2 4.3-.5 4.3s-.7 1.7-.8 3.7c-.1 2.1-.6 6.5-1.3 9.8-.6 3.3-1.1 7.5-1.2 9.2-.1 1.8-.4 3.3-.8 3.3-.3 0-.9 3.3-1.3 7.2-.4 4-.9 8.4-1 9.8-.1 1.4-.5 3.2-.9 4-.3.8-.9 5.1-1.3 9.5-.6 7.2-.8 7.7-1.7 5-.5-1.7-1.5-3.3-2.1-3.7-.5-.4-1.1-1.7-1.1-3-.1-1.3-.9-3.5-1.8-4.9-1-1.4-1.4-2.9-1-3.2.3-.4.1-.7-.6-.7-.8 0-1.1-.7-.7-1.5.3-.8.1-1.5-.4-1.5-.6 0-.9-.3-.8-.8.1-.4-1.5-4.3-3.6-8.7-2.1-4.4-4.7-10.3-5.9-13-1.1-2.8-2.4-5.2-2.7-5.5-1-.8-5.4-10.4-5.2-11.3.1-.4-.5-1-1.3-1.3-.8-.4-1.5-1.2-1.5-2 0-.7-2.2-5.2-5-9.9-2.7-4.7-5.2-9.4-5.5-10.4-.3-1.1-1.7-3.1-3-4.5s-2.2-2.6-1.9-2.6c.7 0-6.9-10.8-10-14.4-1.4-1.6-2.6-3.9-2.6-5 0-1.2-.7-3.4-1.5-5-.8-1.5-1.5-3.4-1.5-4.1 0-.7-.7-1.8-1.5-2.5s-1.2-1.6-.9-2.1c.3-.5 0-.9-.5-.9-.6 0-1.1-.5-1.1-1.1 0-1.5-8.1-9.9-9.7-9.9-2 0-1.6.7 2.6 4.9 2.2 2.2 3.7 4.2 3.4 4.4-.3.3-.1 1.3.5 2.3.5.9.6 3.2.2 5-.4 1.9-.4 3.6.1 3.9.7.5.4 22.1-.6 34.5-.5 6.2-1.5 23-2 32-.2 4.1-.6 8.8-.8 10.5-.3 1.6-.5 3.8-.6 4.8-.1 1.5-.5 1.4-2.8-1-1.6-1.5-2.8-3-2.8-3.3 0-.3-3.5-5.1-7.7-10.8-4.3-5.6-7.5-10.2-7.1-10.2.3 0-.4-.8-1.5-1.9-1.2-1-1.9-2-1.7-2.3.3-.3-.4-1.3-1.5-2.3-1.1-1-2-2.2-2-2.7s-.5-1.4-1-2.1c-.6-.7-3.3-4.3-6-8.2-4.8-6.7-6.6-7.5-3.5-1.5.9 1.7 1.2 3 .9 3-.4 0 .1.9 1.1 2s1.5 2 1 2c-.4 0-.2.7.5 1.5s1 1.5.7 1.5c-.3 0 0 1.5.8 3.4.8 1.8 1.6 4.4 1.9 5.7.3 1.3.7 3.3 1 4.4 2.3 8.6 3.3 13.5 2.8 13.5-.4 0-.2.4.5.8.6.4 1.4 1.9 1.6 3.2.2 1.4.7 3.3 1.1 4.2.4.9.5 2.2.1 2.8-.3.5-.1 1 .6 1 .6 0 .9.8.6 2-.3 1.1-.2 2 .3 2 .4 0 1 1.7 1.3 3.7.3 2.1.8 4.8 1.1 6 .7 2.9 1.4 5.9 2.3 10.3 1 4.8 1 5 1.3 5.2.3.3.6 2.1 1.4 7.3.4 2.8.7 4.2 2.1 10.5.4 1.4.8 3.4 1 4.5.2 1.1.6 3.1 1 4.5.3 1.4.9 4.1 1.1 6l.5 3.5-2.3-4.2c-1.3-2.3-3.1-5.2-4-6.3-1-1.1-1.8-2.2-1.8-2.5 0-.2-2.8-4.1-6.2-8.6-3.5-4.5-6.7-8.9-7.3-9.7-.5-.9-2.2-3-3.7-4.7-1.6-1.6-2.8-3.3-2.8-3.7 0-.4-1.1-.7-2.5-.6-2 .2-2.5.8-2.7 3.3 0 1.6 0 3.7.1 4.5.1.8.5 2.8.7 4.5.3 1.6.7 4.6.9 6.5.2 1.9.7 5.1 1 7 .3 1.9.7 4.5.8 5.7.2 1.2.6 2.5.9 2.8 1 1-.2 3.6-1.3 2.9-.5-.3-.9.2-.9 1 0 .9.4 1.6.9 1.6 1.3 0 2 7.3.8 8.7-.6.9-.6 1.3.2 1.3.7 0 1.1 2.1.9 6.3-.1 3.4.2 6.8.6 7.5.6 1-.1.9-2.3-.2-1.7-.9-3.1-2-3.1-2.4 0-.4-1.5-1.6-3.2-2.7-1.8-1-3.8-2.4-4.5-2.9-3.4-3-4.3-3.6-5.3-3.6-.5 0-1-.4-1-.9 0-.4-5.3-4.3-11.7-8.6-6.5-4.3-12.4-8.5-13.1-9.3-.6-.9-1.2-1.2-1.2-.6 0 .5-.4.4-.8-.2-.4-.6-1.7-1.4-2.9-1.8-1.8-.6-2.2-.4-1.7.8.3.9.9 1.4 1.3 1.1.4-.2 2.5 1.4 4.5 3.5 2.1 2.2 4.1 4 4.6 4 .4 0 2.7 2.6 5.1 5.7 2.4 3.2 5.6 7 7.1 8.5 1.4 1.4 2.5 2.8 2.2 3.1-.3.2.8 1.5 2.3 2.8 1.6 1.3 3 2.8 3.1 3.4.2.5 1.2 2 2.2 3.3 1.1 1.2 2 2.5 2 2.7 0 .3 1.7 2.7 3.8 5.4 2 2.7 4.6 6.1 5.7 7.6 1.1 1.6 2.6 3.4 3.3 4.1.6.7 1.2 1.7 1.2 2.2 0 .5.9 1.7 1.9 2.6 1.8 1.7 4.7 11.3 3.7 12.3-.5.5-5.8-3.9-8.9-7.5-1.2-1.2-2.6-2.2-3.3-2.2-.7 0-1.6-.9-1.9-2-.3-1.1-1.2-2-2-2-.7 0-2.5-1.4-3.8-3-1.4-1.7-2.9-3-3.2-3-.4 0-1.2-.6-1.9-1.3-.7-.6-3.4-3-6.1-5.2-2.7-2.2-5.9-4.9-7.1-6-1.3-1.1-4.2-3.3-6.4-4.9-2.2-1.7-4-3.3-4-3.8 0-.4-.5-.8-1.1-.8-1 0-6.9-4.3-10.5-7.5-.6-.5-2.2-1.7-3.4-2.5-1.2-.8-2.8-2.1-3.6-2.8-.7-.6-1.7-1.2-2.3-1.2-.5 0-1.6-.6-2.3-1.3-2-1.8-5-3.7-7-4.3-1-.4-1.8-1-1.8-1.4 0-.4-2.5-2-5.5-3.4-3-1.5-5.7-3.2-6-3.7-.4-.5-1.1-.7-1.6-.4-.5.4-.9.2-.9-.4 0-.6-1.7-1.9-3.7-2.9-8.1-4-12.8-6.7-13.1-7.5-.2-.4-.7-.5-1.2-.2s-1.5-.1-2.3-.9c-2-2.1-15.4-8.6-16.1-7.9-.3.4-.6.1-.6-.5s-1-1.4-2.2-1.7c-1.1-.4-4.3-2-7-3.6s-6-3.2-7.3-3.5c-1.4-.3-2.5-1-2.5-1.6 0-.5-.4-.6-1-.3s-1 .2-1-.4c0-.6-1.8-1.5-4-2.1-2.1-.6-4.7-1.8-5.6-2.8-1-.9-1.9-1.5-2.1-1.3-.2.1-2.7-.7-5.6-2-2.9-1.3-5.5-2.2-5.9-2.1-.5.1-.8-.2-.8-.7 0-.5-1.2-1.4-2.7-1.9-1.6-.5-3.6-1.3-4.5-1.7-1-.4-1.8-.3-1.8.3s1 1.4 2.2 1.8c1.2.3 2.8 1.2 3.5 1.8 3.1 2.7 4.1 3.4 6.1 4 1.2.4 2.2 1.2 2.2 1.7s.7.9 1.5.9 1.5.4 1.5 1c0 .5.7 1 1.5 1s1.5.7 1.5 1.6c0 .8-.4 1.2-1 .9-.5-.3-1-.2-1 .4 0 1.2-4.7-.6-6.8-2.6-.7-.6-2.1-1-3.2-.8-1.1.2-2 0-2-.6 0-.5-.6-.9-1.2-.9-2.8 0-15.5-5.5-17.7-7.6-1.3-1.3-2.7-2.1-3.2-1.8-.5.3-2.2-.9-3.8-2.5-1.6-1.7-4.1-3.3-5.5-3.7-1.3-.3-2.7-1.2-3-2.1-.3-.8-1-1.1-1.6-.8-.5.3-1 .2-1-.3s-1.5-1.5-3.2-2.3c-1.8-.7-3.6-1.8-4-2.3-.5-.7-.8-.5-.8.5 0 .8 3.1 4.7 6.8 8.5 3.8 3.8 7.7 8.6 8.7 10.6 1.4 3.1 2.7 4.1 6.7 5.5 5.2 1.9 5 1.6 44.5 40.3 7.3 7.1 13.3 12.7 13.3 12.4 0-.3 1.5 1.2 3.3 3.3 4.4 5.2 5.5 6.3 6.1 6.3.2 0 5.8 5.3 12.4 11.7 6.6 6.5 16.3 15.8 21.6 20.8 5.3 4.9 14.1 13.3 19.6 18.6 5.5 5.3 10 9.5 10 9.3 0-.2 1.9 1.7 4.3 4.2 2.3 2.5 5.1 5.5 6.2 6.6l2 1.9-2-.7c-1.1-.4-2.6-1.4-3.3-2.1-.7-.7-3.4-2.5-6-4s-4.9-3-5.2-3.4c-.3-.3-2.4-1.6-4.7-2.8-2.3-1.1-4.5-2.5-4.8-3.1-.4-.6-1.1-.8-1.6-.5-.5.4-.9.2-.9-.3 0-.6-1.7-2-3.7-3.3-6.1-3.7-8.3-4.8-8.3-4.2 0 .3-.7 0-1.5-.7-.8-.6-1.8-.9-2.4-.6-.5.3-2.2-1.4-3.7-3.8-2.3-3.7-5.2-6.1-8.4-7.1-1.4-.4-10.7-4.6-12.2-5.5-1-.5-2.4-1-3.1-1-.7 0-2.2-.8-3.3-1.8-1-.9-2.7-1.8-3.7-2-1-.2-3.9-1.6-6.4-3.3-2.6-1.6-5.3-2.9-6-2.9-.7 0-1.3-.5-1.3-1 0-.6-1.1-1-2.5-1s-2.5-.4-2.5-.9c0-.8-9.4-3.7-14.5-4.5-1.1-.2-3.8-.9-6-1.5-5-1.4-6.2-1.4-4.9-.1.5.5 2.1 1.1 3.4 1.4 1.4.2 2.6.5 2.8.7.1.1.5.2 1 .4.4.1 2 .7 3.5 1.3 1.6.7 3.2 1.2 3.7 1.2s2.6 2.1 4.7 4.7c3.9 5 6.9 8.3 15 16.9 2.6 2.7 5.7 6.3 6.8 7.8 1.1 1.6 2.7 3.5 3.5 4.4.8.9 1.5 1.8 1.5 2.2 0 .4.7 1.3 1.5 2.2.9.8 3.8 4.4 6.5 7.8 2.8 3.5 6.2 7.6 7.7 9.2 1.5 1.6 3 3.7 3.3 4.8.4 1.1 1 2 1.4 2 .5 0 2.7 2.4 4.9 5.3 2.2 3 4.7 6.1 5.6 7 .9.8 1.6 1.9 1.6 2.3 0 .3.8 1.4 1.8 2.3 1 .9 2.9 3.2 4.2 5.1 1.3 1.9 3.2 4.1 4.2 4.8 1 .7 1.8 1.8 1.8 2.4 0 .6 1.6 2.6 3.5 4.4 1.8 1.9 3.2 3.4 3 3.4-.6 0 2.5 3.8 5.3 6.5 1.2 1.2 2.2 2.7 2.2 3.2s1.6 2.5 3.6 4.4c1.9 1.8 4.2 4.9 4.9 6.6.8 1.8 1.9 3.3 2.5 3.3.6 0 .8.4.5 1-.3.5-.1 1 .5 1s.8.5.4 1.1c-.3.6-.2 1.4.3 1.8.5.3 1.9 2.7 3.1 5.3 1.2 2.7 2.7 4.8 3.3 4.8.6 0 .9.7.5 1.5-.3.8-.1 1.5.4 1.5.6 0 .9.3.8.7-.1.5.4 1.8 1.1 3.1 1.2 2.2 1.1 2.2-3-.5-2.9-1.9-4.4-2.4-4.7-1.5-.6 1.8-1.6 1.5-5.3-1.8-1.9-1.6-4-3-4.6-3-.7 0-1.3-.5-1.3-1 0-.6-.7-1-1.5-1s-1.5-.6-1.5-1.3c-.1-.6-2.4-2.3-5.3-3.7-2.9-1.4-5.5-2.9-5.9-3.5-.9-1.2-8.9-5.7-23.9-13.2-12.3-6.1-13.2-6.5-16.4-6.7-1.1-.1-2.8-.8-3.7-1.7-1.2-1-3.3-1.5-6.3-1.3-2.5.1-4.5-.1-4.5-.6 0-1.5-18-.7-18.9.8-.5.8-1.1 1.3-1.5 1.3-1.1-.2-5.6 4.3-5.6 5.6 0 .7-.4 1.3-.8 1.3s-.8.8-.9 1.8c-.1.9-.3 2.3-.5 3.1-.2.7.3 1.6 1.1 1.9 1 .3 1.2 0 .8-1.2-.4-.9-.2-1.6.4-1.6.6 0 .8-.4.5-.9-.7-1.1 6-7.1 7.9-7.1.8 0 1.5-.4 1.5-1 0-.5.7-.7 1.5-.4.8.4 1.5.2 1.5-.3 0-1 4.9-1 9.8.1 1.9.5 3.1 1.3 3 2.1-.2.8 0 1.3.4 1.2.6-.2 7.6 7 10.3 10.5 1.7 2.1 11.9 14.3 12.6 14.8.3.3 1 1.2 1.5 2.1.9 1.6 6 7.9 12.2 14.9 1.7 2.1 3.2 4.1 3.2 4.4 0 .4 1.1 1.9 2.5 3.4s4.1 4.7 6 7.2c1.9 2.5 4.2 5.2 5 6.1.8.9 1.5 2 1.5 2.5 0 .6 1.4 2.3 3 3.9 1.7 1.6 3 3.2 3 3.7 0 .7 2.7 4.3 5.8 7.4.6.7 1.2 1.6 1.2 1.9 0 .4.9 1.8 2 3.2 2.8 3.6 2.5 4.1-1.7 3.8-2.1-.1-4.2 0-4.8.4-.5.3-2.8.7-5 .8-9.3.6-11.4.8-12 1.5-.4.4-2 .4-3.6.1-1.6-.3-2.9-.2-2.9.3s-1.2.9-2.7 1c-3.9.1-10.6 1.2-18.3 2.9-3.6.8-9.6 2.2-13.5 3-3.8.9-8.9 1.4-11.3 1.2-2.3-.2-4.5 0-4.8.5-.3.4-2.1.6-4.1.4-2-.3-4.1-.2-4.7.2-.6.4-2.3.7-3.8.8-1.6.1-2.9.3-3 .4-.2.1-1.6.3-3.3.5-1.6.1-3 .3-3 .4 0 .2-1.8.4-4 .7-2.2.2-4.7.7-5.5 1.1-.8.3-2.8.7-4.5.9-1.6.2-3.7.7-4.5 1-.8.4-2.8.8-4.4 1-1.6.2-3.5.9-4.3 1.5-.7.6-1.3.8-1.3.4s-.6-.2-1.3.4c-.8.6-1.7.8-2 .5-.3-.3-4 1-8.1 3-7.5 3.6-12.6 8.5-12.6 11.9 0 1.6-1.5 2.1-5.3 1.8-.9-.1-1.7.3-1.7.8 0 .6.3 1.1.8 1.2.4 0 1.6.2 2.7.4 3 .6 5.5-.4 5.5-2.3 0-2.1 3.7-5.5 5-4.7.6.4 1 .1 1-.5 0-.7 3.1-.9 9.3-.6 5 .2 11.5.5 14.2.5 4.5.2 4.8.3 2.9 1.4-1.2.7-4.4 3.1-7 5.4-9.9 8.6-15.7 13.9-17.8 16.1-1.2 1.2-3.7 3.9-5.6 6-5.7 6-11 12.9-11 14.3 0 .7 2-.9 4.4-3.4 2.4-2.6 4.9-4.7 5.5-4.7.5 0 1.5-.8 2-1.8.6-.9 1.1-1.4 1.1-.9 0 .4 1 .1 2.3-.8 1.3-.8 2.7-1.2 3-.8.4.3.7.1.7-.5 0-.7.3-1.1.8-1 .4.1 1.7-.3 3-1 1.2-.7 2.2-1 2.2-.6 0 .3.6.1 1.3-.5.8-.6 2.7-1.2 4.3-1.4 1.7-.2 3.5-.7 4.1-1 .7-.4 2.3-.6 3.7-.3 1.4.3 2.8.1 3.1-.4.3-.4 2.1-.7 4-.5 2 .1 3.8-.2 4.1-.6.2-.4 1.9-.6 3.6-.4 1.7.2 3.6.1 4.2-.2.5-.4 3.7-.8 7-1 3.4-.1 9.5-.7 13.6-1.1 4.1-.5 8.7-.8 10.2-.8 1.5.1 2.8-.2 2.8-.7 0-.4 1.9-.7 4.3-.6 5.1.1 13.3-.8 14.5-1.5.8-.5 8.6 2 13.7 4.4 1.1.5 4.4 1.7 7.3 2.6 2.9.9 5.4 2 5.7 2.4.3.5 1.4.6 2.5.3s2 0 2 .6.3 1 .8.9c1-.3 8.5 2.3 10 3.5.6.5 1.2.7 1.2.3 0-.4 1.4 0 3 .9 1.7.9 3 1.3 3 .9s.6-.2 1.3.3c.6.6 3 1.6 5.2 2.3 2.2.7 4.5 1.6 5 1.9.6.4 1.7.7 2.5.6.8 0 1.7.2 2 .5.3.4 2.1 1.1 4 1.7 2.9 1 1.2 1.1-9.8 1-7.4-.1-13.6-.5-13.8-.8-.9-1.6-38.4-1.5-38.4.1 0 .3-1.6.6-3.7.7-2 .1-4.8.6-6.2 1.1-1.4.6-3.5 1.4-4.6 1.8-1.1.4-2.8.8-3.7.9-1 .2-2 .4-2.3.5-.3.1-.8.3-1.2.4-.5.1-1.9.8-3.3 1.6s-2.7 1.5-3 1.6c-.3 0-2.3.9-4.5 1.9-2.2 1-4.3 1.8-4.7 1.7-.5-.1-.8.3-.8.9 0 .5-.4.7-1 .4-.5-.3-1-.1-1 .5s-.4.9-.9.6c-.5-.3-1.4.1-2.1.9-.7.8-1.9 1.5-2.6 1.5-.8 0-1.4.4-1.4 1 0 .5-.6 1-1.2 1-1.2 0-8.6 4.6-11.5 7-.7.5-1.4 1-1.7 1-.2 0-3.9 2.2-8 5-4.2 2.7-8 5-8.6 5-.5 0-1 .4-1 .9s-1.6 1.8-3.5 3c-1.9 1.1-3.5 2.6-3.5 3.3.1.8.7.5 1.5-.6s1.5-1.6 1.5-1.2c0 .5.6.4 1.3-.2 1.2-1 13.9-6.1 16.7-6.7.8-.1 3.4-.8 5.8-1.4 2.3-.7 4.6-.9 5.1-.6.5.3 1.1.1 1.3-.4.6-1.6 9-2.4 22.3-2.2 20 .2 43.6 1.8 44.5 2.9.3.4 2.8.8 5.5.9 6.7.3 13.5 1.4 13.5 2.3 0 .4-.3 1-.7 1.4-.5.4-.8 1.7-.9 2.9 0 1.2-.4 4.4-.8 7.2-.4 2.7-.9 6.5-1.2 8.2-.2 1.8-.6 4.8-.9 6.7-.5 3.1-.4 3.4 2.7 4.1 1.8.4 3.6.7 4.1.6.8-.1 3 4.9 2.3 5.6-.2.2-1.7.6-3.2.8-1.6.2-6.6 1.3-11.2 2.5-8.2 2.1-11.7 2.4-18 1.7-1.8-.2-3.5 0-3.7.3-.3.4-2.4.6-4.7.5-2.4-.1-4.7.1-5.3.4-1.1.6-2.4.9-6.5 1.5-1.4.2-2.6.5-2.7.6-.2.1-.7.4-1.3.5-.5.1-1.2.4-1.5.5-.3.1-.9.4-1.5.5-.5.1-1.1.3-1.2.5-.2.1-1.4.3-2.6.4-1.3.2-2.8.9-3.2 1.7-.5.7-1.2 1-1.5.7-.4-.4-2.3.2-4.3 1.2-2.1 1-4.3 2-5.1 2.2-.8.2-5.7 2.4-11 5-5.2 2.7-10.1 4.8-10.9 4.8-.7 0-1.1.4-.8.9.3.5-.6 1.2-2.2 1.5-5.4 1.4-21.8 13.3-33.2 24.2-3 2.9-6.5 6.1-7.7 7.2-3.3 2.8-2.9 4.8.3 2.3 1.5-1.2 3.3-2.1 4-2.1.8 0 1.4-.5 1.4-1 0-.6.3-.9.8-.8.4.1 3.6-1.2 7.2-2.9s10.1-4.3 14.5-5.6c13.3-4.2 24.7-7.5 30.5-9 3-.8 8.7-2.4 12.5-3.5 15.2-4.5 53.2-13.8 68.3-16.8 1.2-.2 3.4-.6 5-.9 1.5-.3 3.6-.7 4.8-.9 1.1-.2 2.6-.6 3.2-1 .6-.3 1.3.2 1.6 1.2.3 1 3.3 4.5 6.5 7.9l5.9 6-5.6 1.3c-3.2.8-6 1.3-6.4 1.2-.5-.1-.8.1-.8.5 0 .5-1.2.8-2.8.9-3.9.1-26.2 7.4-26.2 8.5 0 .6-.5.7-1 .4-.6-.3-2.2.3-3.8 1.3-1.5 1.1-3.1 2.1-3.7 2.2-2.6.6-5.4 2-6 3-.3.5-1.1.8-1.6.5-.5-.4-.9-.1-.9.4 0 .6-.3 1-.7.9-1.1-.3-12.2 7.1-15.8 10.5-1.7 1.5-3.3 2.7-3.6 2.7-1.1 0-11.5 10.3-17 17-3 3.6-5.7 6.6-6.1 6.8-.5.2-.8 1-.8 1.7s-1.1 2.3-2.5 3.6c-1.3 1.3-2.5 3-2.5 3.6 0 .7-.4 1.3-1 1.3-.5 0-1 .5-1 1.1 0 .6-.6 1.7-1.2 2.4-3.3 3.7-4 4.7-3.4 5.2.3.4 2.2-1.3 4.2-3.6s3.9-4 4.1-3.7c.3.3 1.3-.4 2.2-1.5 1.6-2 3.6-3.3 10.1-6.6 1.9-1 4.1-2.4 4.8-3.1.8-.6 3.3-1.7 5.7-2.3 2.4-.6 4.6-1.8 4.9-2.6.4-.9 1.3-1.3 2.2-.9.8.3 2.5.1 3.7-.6 1.2-.7 2.8-1.1 3.4-1 .7.2 1.3-.2 1.3-.9 0-.6.7-.9 1.5-.6.8.4 1.7.2 2-.4.4-.5 1.1-.7 1.6-.4.5.4.9.2.9-.4 0-.6.6-.8 1.4-.5.8.3 1.7 0 2.1-.5.3-.6 1.1-.9 1.6-.5.5.3 1.6 0 2.4-.6.8-.6 1.9-.9 2.5-.5.5.3 1 .2 1-.3 0-.6.9-.8 2-.5 1.1.3 2 .1 2-.4 0-.6 1.1-.9 2.5-.8 1.4.2 2.5 0 2.5-.4s1.1-.8 2.5-.9c5.4-.5 6.5-.6 6.5-1.2 0-.3 1-.6 2.3-.7 2.5-.1 8.2-1 11.2-1.6 1.1-.3 4.7-.8 8-1.2 3.3-.4 7.6-.9 9.5-1.1 6.2-.9 13.3-1.6 19.5-2 18.7-1.3 22-.9 17.6 2.2-1.7 1.2-1.9 1.9-1.1 3.4.5 1 1.9 2.2 3.1 2.5 1.1.4 1.9 1.1 1.7 1.7-.2.5-.6.8-1 .6-.3-.2-1.4.5-2.4 1.4-1.1.9-2.1 1.7-2.4 1.7-.3 0-1.8.5-3.4 1.1-2.9 1.1-18 1.5-22.3.6-1.3-.3-2.3-.1-2.3.3 0 .5-1.2.9-2.7 1-3.9.1-9.8.8-9.8 1.1 0 .1-1.1.4-2.5.5-2.5.3-6.3 1.2-6.7 1.5-.2.2-1.2.4-2.3.5-1.1.1-2.1.3-2.2.5-.4.2-2.6.8-6.3 1.5-1.6.3-3.7.8-4.5 1.2-1.6.6-2.9 1-5.7 1.7-1 .3-1.9.5-2 .6-.2.2-.7.4-1.3.5-.5.1-1.1.3-1.2.5-.5.3-4.3 1.2-6 1.3-1 .1-1.8.5-1.8 1 0 .4-.4.6-.9.2-.5-.3-1.2-.1-1.6.5-.4.6-1 .8-1.5.5-.5-.3-2.2.2-3.7 1.2s-2.8 1.7-3 1.5c-.2-.1-.4-.2-.5-.1-.2 0-1.4.3-2.8.5-1.3.2-2.7.9-3.1 1.6-.4.6-1.1.8-1.7.4-.6-.3-1.3-.2-1.7.4-.4.6-1.1.8-1.6.5-.5-.4-.9-.1-.9.6 0 .6-.8.9-2 .6-1.1-.3-2-.2-2 .3 0 .9-2.7 2.1-5.7 2.5-1.2.2-3.5 1.2-5 2.2-1.5 1-4.1 2.5-5.8 3.3-11.1 5.4-20.6 13.4-36.5 30.9-3.6 4-7.1 7.9-7.8 8.7-.7.7-1.1 1.4-.8 1.4.3 0-1.1 2.3-2.9 5.2-3.7 5.5-3.8 8-.2 3.8 2.2-2.6 12-9 13.6-9 .5 0 1.1-.4 1.3-.9.2-.5 1-1.1 1.8-1.3.8-.2 1.9-.8 2.5-1.4.5-.6 5.1-2.8 10-5 5-2.1 9.3-4.3 9.7-4.9.4-.5.8-.6.8-.1s.9.1 2-.9 2-1.5 2-1c0 .4 1.2 0 2.6-1 1.4-.9 3.7-1.9 5.1-2.1 1.4-.3 3.6-1.2 4.9-2.1 1.3-.8 2.4-1.2 2.4-.8 0 .4.6.2 1.3-.4.8-.6 1.7-.8 2-.4.4.3.7 0 .7-.7s.3-1 .7-.7c.3.4 1.1.2 1.8-.3.6-.5 2-1.1 3.1-1.3 1-.2 2.6-.7 3.4-1 4.2-1.8 10-3.5 10-3 0 .3.6 0 1.4-.6 1.9-1.6 31.5-10.3 32.7-9.6.5.4.9.1.9-.4 0-.6.8-1.1 1.8-1.1s2.2-.3 2.6-.7c.3-.4 2.1-.7 3.9-.8 1.7-.1 3.9-.4 4.7-.8 2.5-.9 8.9-2.2 16.9-3.2 1.4-.2 2.6-.4 2.6-.5 0-.4 8.2-1.2 12.3-1.3 2.3 0 4.2-.3 4.2-.7 0-.3 3.4-.6 7.5-.5 4.1 0 7.5.4 7.5.8 0 .5.5.5 1 .2 1.5-.9 5.2.5 4.7 1.8-.3 1.1-3.2 1.7-8.6 1.7-4.3 0-17.4 4.8-19.1 7-.3.4-2.1 1.5-4 2.6-1.9 1-3.9 2.5-4.3 3.1-.4.7-1.4 1.3-2 1.3-.7 0-1.9.9-2.7 2-.8 1.1-1.8 2-2.3 2-.5 0-2.2 1.1-3.9 2.5-1.6 1.4-3.6 2.5-4.4 2.5-.8 0-1.4.3-1.5.7 0 .5-2.7 2.8-5.9 5.3-3.3 2.5-6 4.9-6 5.4s-1.5 2.4-3.2 4.2c-5.4 5.3-6.8 7-6.8 8.2 0 .6-.9 1.4-2.1 1.7-1.1.4-1.8.9-1.5 1.2 1 1-12.2 16.3-14.1 16.3-1.3 0-18.4 17-24.2 24.1-2.9 3.5-5.8 6.8-6.4 7.4-.7.5-2.1 2.7-3.2 4.7-1.1 2.1-2.2 3.8-2.6 3.8-.3 0-1.7 2.7-3 6s-2.7 6-3.2 6c-.4 0-.5.5-.2 1 .4.6.1 1.7-.5 2.5s-1 2.1-.8 3c.2 1 2.8-.8 8.3-6 4.4-4.2 8.8-8 9.8-8.6 1.6-.9 1.7-.8.5 1-.7 1.2-1.6 2.1-1.9 2.1-.9 0-2.8 5-3 8-.3 4.9 0 5.6 1.6 3.3.9-1.2 3-3.2 4.7-4.4 2.9-2.1 3.1-2.2 2.4-.3-.5 1-.9 2.5-.9 3.1 0 .7-.4 1.3-.9 1.3-.4 0-.8.7-.8 1.5s-.5 1.5-1.1 1.5c-.5 0-.7.5-.3 1.1.3.6.2 2.1-.4 3.2-1 2.2-2.3 5.5-2.7 6.9-.2.5-.3.9-.5 1-.3.5-.9 3.1-1.5 7.3-.4 2.2-.9 4.7-1.2 5.5-.3.8-.7 3.5-.7 6-.1 2.5-.5 5.1-1 5.8-1.3 2.1.2 1.3 2.9-1.5 1.4-1.5 2.5-3.2 2.5-3.6 0-.5.9-2.1 2-3.7 1.1-1.5 1.7-3 1.3-3.4-.3-.3 0-.6.7-.6s1.1-.3.8-.6c-.4-.3 0-1.3.9-2.2 2.1-2.4 9.3-14.9 9.3-16.1 0-.6.5-1.1 1-1.1.6 0 1-.5 1-1.2 0-.6.6-1.9 1.4-2.7.8-.9 3.7-6.1 6.5-11.5 2.8-5.5 5.1-9.3 5.2-8.5.1.7 0 5.6-.1 10.6-.1 6.1.2 9.3.9 9.3.6 0 1.1-.7 1.1-1.5s.4-1.5 1-1.5c.5 0 .7-.6.4-1.3-.3-.8.2-2 1-2.7.9-.7 1.3-1.6 1-2.1-.3-.5 0-.9.5-.9.6 0 1.1-.5 1.1-1 0-1 3.1-5.9 5.5-8.6.6-.6 1.7-2.2 2.5-3.4.8-1.2 3.7-4.3 6.4-6.9 2.6-2.5 5.8-5.6 6.9-6.9 1.1-1.2 2.7-2.2 3.5-2.2 2.7 0 12.2-3.2 13.6-4.5.7-.8 1.6-1.1 1.9-.8.4.3 1.8-.2 3.1-1.1 3.5-2.3 3.9-2 2.1 1.5-1.3 2.4-4.9 14.4-5.9 19.5-.1.5-1.2 2.3-2.4 3.8-1.2 1.6-2.2 3.6-2.2 4.6 0 .9-.3 2-.7 2.4-.4.3-.9 1.4-1.1 2.4-.2.9-.5 2.6-.7 3.7-1.1 5.5-2.3 9.3-3.9 12.2-.9 1.8-1.6 3.5-1.6 3.8 0 .3-.6 1.8-1.4 3.3-1.7 3.3-2.7 9.2-1.6 9.2s.6 4.5-.7 6.2c-1.5 1.9-4.4 7.8-3.9 7.8.3 0-.6 2.3-2 5-1.4 2.8-2.3 5.4-1.9 5.9.3.5.1 1.1-.5 1.3-.5.1-1.1 1.2-1.3 2.3-.1 1.1-.6 2.5-.9 3.1-.8 1.2-.5 4 .5 5 .6.7 1.1-1 .8-2.9 0-.4.3-.7.8-.7s1.2-1.3 1.6-3c.4-1.6 1.1-3 1.6-3 .6 0 .7-.5.4-1-.3-.6-.1-1 .5-1s.8-.5.4-1.1c-.3-.6-.3-1.4.2-1.8 1.2-.8 6-10.4 5.6-11.3-.1-.4.5-.8 1.4-.8.9 0 1.2.5.8 1.2-.4.6-.9 5.5-1.1 10.7-.8 20.7-1.3 26.1-2.4 26.1-.4 0-1 .9-1.4 1.9-.3 1-1.3 2.1-2.3 2.4-2.5.8-7.5 4-8.9 5.7-.9 1.1-1.5 1.2-2.1.3-.4-.6-1.9-1.6-3.4-2.2-2.4-.9-2.7-.7-3.4 1.7-.4 1.5-.8 4.4-.9 6.4-.2 4.7-1.8 6.7-5 6-2.8-.5-6.9 1.8-8.5 4.8-1.7 3.2-.2 4.1 3.3 2 3-1.8 3.5-1.8 5.5-.4 1.7 1.2 2.1 2.2 1.6 4.2-.3 1.5-.6 3.6-.7 4.6-.1 1.1-2.1 4-4.5 6.5-4.7 4.9-9.3 13.6-8.8 16.7.2 1.1.1 2.2-.1 2.7-.4.7-6.5-3.1-7.1-4.5-.2-.4-1.1-.8-2-.8-1.1 0-.3 1.4 2.6 4.3 4.1 4.2 6.7 10.7 4.3 10.7-.7 0-1 .4-.6.9.3.5.1 1.2-.4 1.5-.5.4-.8 1.4-.6 2.4.1.9-.2 2.3-.7 2.9-.6.7-.8 4.4-.4 8.7.4 5.8.2 7.7-.9 8.6-.8.7-1.2 1.6-.9 2.1.3.5.1.9-.5.9-.5 0-1.6 1.2-2.3 2.7-.9 1.7-2.3 2.8-4.1 3-2.6.4-2.8.2-2.1-1.9.4-1.3.8-3.2 1-4.3.1-1.1.3-2 .4-2 1 0 1.6-16.2.6-17.2-1.5-1.5-2.6 1.6-2.8 7.7-.1 3.6-.3 5.8-.5 4.8-.2-.9-1-1.8-1.7-2.1-.8-.3-1.2.8-1.3 3.7-.1 2.2-.2 4.1-.3 4.1 0 0-.2 3.6-.3 8l-.2 8 4.5 3c4.4 2.9 4.5 3.1 2.8 4.8-1.8 1.7-2 1.6-4.3-.8-1.4-1.3-2.8-2.4-3.1-2.4-.3 0-1.9-1.1-3.5-2.6-3-2.4-3.1-2.9-3.4-11.7-.1-5.6.2-10 .9-11.1.8-1.5.8-2.1-.1-2.4-.7-.3-1.3-1.1-1.3-1.9 0-.8-.4-1.4-.9-1.4-.4 0-.8 1-.7 2.2.1 1.3-.1 3.5-.5 4.9-.4 1.4-.2 3.3.3 4.2.5 1 .5 1.7.1 1.7s-.8 4.1-.8 9c-.1 5 .2 9 .6 9 .4 0 .5 1.3.4 2.9-.4 4.4.8 5.5 5 4.8 3.4-.6 3.7-.4 6.6 4 1.9 3.1 2.5 4.9 1.8 5.4-.6.3-1 1-1 1.5.1 1.4-2.1 7.8-3.1 9.1-.5.7-.7 1.7-.4 2.2.4.5.2 1.2-.3 1.5-.5.3-.7 1.9-.6 3.6.1 1.6-.1 3-.6 3s-.9.6-.9 1.2c0 .7-.9 2.4-1.9 3.7-1 1.4-1.7 3.1-1.4 3.8.3.7.1 1.3-.5 1.3-1.3 0-3.4 8.4-3.6 14.5-.1 3.9-.5 5-1.9 5.3-1.2.3-2-.4-2.4-1.7-.3-1.2-.9-2.1-1.4-2.1-.5 0-.9-.6-.9-1.3 0-1.3-7-8.7-8.3-8.7-1.3 0 .5 5.5 2.6 7.7 1.1 1.3 1.7 2.3 1.4 2.3-.4 0 .4 1.8 1.8 4s2.5 4.3 2.5 4.8c0 .4 1.8 2.5 4.1 4.5l4 3.8-.2 7.2c-.1 4-.4 7.6-.8 8.2-.3.5-.6 2.1-.6 3.5-.1 3.2-1.2 5-3.1 5-1.2 0-1.4-1.5-1.2-8.5.2-4.7-.1-8.5-.5-8.5-.5 0-.6-.4-.2-.9.3-.5.1-1.2-.4-1.6-.6-.3-1.3 1-1.7 2.9-.8 4.8-1.2 18.6-.4 18.6.3 0 .7 1 .7 2.2.1 1.3.4 5 .7 8.3.7 7.2.7 19.5 0 20.6-.2.4.1 1.1.8 1.6 1.2.7 1.6.9 3.6 1.2.4 0 .4 3.8 0 8.3-.4 4.6-1 12.3-1.2 17.2-.3 4.9-.8 9.7-1.2 10.5-.4.9-.7 4-.8 6.9-.1 5.3-1.7 7.7-4.3 6.7-1.3-.4-3 1.4-2.9 3.2.1 1.6 6.6 7.3 8.3 7.3.7 0 1.3.4 1.3.8 0 .5.8 1.3 1.8 1.8 1.7.8 1.7 1.1.2 4.3l-1.7 3.3-2.2-3.7c-1.2-2.1-2.3-3.6-2.5-3.4-.8.8-1.4 6.8-.8 7.4.3.3.7 1.5.9 2.7.2 1.2.9 2.9 1.6 3.7.9 1.1 1.3 4.8 1.2 11.2v9.6l-5.3 5.2c-2.8 2.9-5.2 5.9-5.2 6.7 0 .8-.4 1.4-.9 1.4s-1.1.9-1.4 2c-.7 2.9.3 2.5 5.3-2 2.5-2.2 5-3.8 5.5-3.6.6.1 1.1 1.5 1.3 3.1.2 1.5 1.1 3.9 2 5.2 1.5 2.4 2.1 6.8 2.6 20.3.2 3.6.4 6.7.5 7 .1.3.4 2.1.6 4 .4 4.3 2.1 8.9 4.2 11.2.9 1 1.3 1.8.9 1.8-.3 0 0 1 .7 2.3 1.3 2.2 1.5 9.9.3 12.8-.7 1.5-4.3 1.8-8.3.5-1.8-.6-2-.3-1.4 2.1.8 3.7 2.1 5.5 5.1 7.5 2.7 1.7 2.8 1.8 3.3 11.3.3 7.1 1.2 10 3.8 12.6 1 1 1.6 2.5 1.3 3.3-.3.8-.1 1.7.4 2 .6.3.8 1.5.5 2.6-.3 1.1 0 2.7.7 3.5.6.8.9 1.8.6 2.3-.3.5-.1 2.4.5 4.3s1.2 4.5 1.5 5.9c.3 1.3 1 2.7 1.5 3.1.6.3 1 .8.8 1-.1.2.8 2.3 2 4.7 1.2 2.3 1.9 4.2 1.5 4.2-.4 0-.2.6.3 1.3 1.2 1.4 4.8 11.9 4.5 12.9-.1.5.2.8.7.8.8 0 2.5 5.3 2.4 7.7-.1 1.8 7.6 9.4 11.6 11.5 2 1.1 3.1 2.4 3 3.5-.1 1 .5 3.5 1.4 5.5 1.2 2.8 1.5 6 1.2 13.2-.3 5.6 0 9.8.6 10.1.5.4.7 1 .4 1.5-1 1.6 1.7 9.8 3.8 11.7 2 1.7 2 1.7 1.2-.2-.4-1.1-.8-3.4-.9-5.2-.1-1.7-.4-3.4-.8-3.8-.4-.4-.4-1.3-.1-2.1.3-.8 0-2-.6-2.8-.6-.7-.8-1.6-.4-1.9.3-.4.2-1.2-.4-1.9-.5-.7-.8-1.9-.7-2.6.1-.6.2-1.9.3-2.7.1-1 1.2-1.5 3.5-1.5 3.6 0 6.6 2.1 6.6 4.6 0 .8.4 1.4 1 1.4 1.3 0 7 12.6 7 15.4 0 1.8 4 8.9 5.9 10.6 1.3 1.1 4.9 8.9 4.3 9.4-.8.8-4.7.7-5.6-.1-.3-.4-1.4-.8-2.4-.9-.9-.1-2.5-.5-3.4-.9-1.3-.5-1.8-.2-1.8 1 0 .9.4 1.4.9 1.1.5-.4 1.1-.1 1.3.4.2.6 1.1 1.2 2 1.3.9.2 2.2.8 3 1.5.8.6 2.3 1.3 3.4 1.5 1 .1 2.6.7 3.4 1.2.8.5 5 1 9.3 1 6.8.2 8.1.5 10.5 2.7 3.7 3.4 10.2 8.1 13.2 9.6 1.4.7 3.9 2.5 5.7 4l3.1 2.8-1.8 5.1c-1 2.9-2 5.6-2.3 6-.3.5 3.1.8 7.6.7 4.8-.1 8.8.3 9.6 1 .8.6 1.6 1 1.8.8.1-.1 1-.2 1.8-.2 1 0 1.5 1.1 1.5 3.5 0 4.3-1.9 4.6-6.6 1-4.1-3.1-4.4-3.1-3.8 0 .8 4.4 7.1 11 14.2 14.8 2.8 1.5 5.4 2.8 5.7 2.7.3 0 .6.1.8.1 1.3.7 15.4.6 16.2-.1.5-.4 2.9-.5 5.3 0 2.5.4 4.5.4 4.8-.2.6-.9 3.2-.7 11.2.6 1.3.3 2.9.9 3.6 1.5.7.6 2.8 1.1 4.7 1.3 1.9.1 4.6 1.1 6.1 2.1 2.8 2.1 2.4 2 20.8.2 1.9-.2 4.1.1 4.8.7.6.6 1.2.7 1.2.3 0-.3 1.2.3 2.6 1.4 2.8 2.2 9.8 2.9 10.9 1.1.6-1 31.9-.5 33.6.6.6.3 2.5.8 4.2 1.1 1.8.3 3.4.8 3.7 1.2.3.3 2.3 1.5 4.5 2.6s4.2 2.2 4.5 2.5c.3.3 1 .5 1.5.5 3.7.2 13.2 1.9 14 2.5.6.4 7.4.8 15.3.9 13.6.1 14.4 0 16.6-2.2l2.2-2.2 2.4 2.2c2.1 2 3.5 2.3 10.2 2.3 4.4 0 7.8-.4 7.8-1 0-.5.6-.7 1.4-.4.8.3 1.7 0 2.1-.5.3-.6 1.1-.9 1.6-.5.5.3 2.2-.2 3.6-1.2 1.5-.9 4.1-1.8 5.8-2 6.1-.5 10-2.8 12.3-7.1.9-1.7 1.9-2.1 4.6-1.8 1.9.1 4.5 1 5.8 1.9 3 2.1 5.1 2 9.8-.4 2.2-1.1 4-1.8 4-1.5 0 .8 6.3-2.7 7.1-3.9.4-.5 1.4-.6 2.2-.3.8.3 1.8.3 2.1-.1.4-.3 4.9-.6 10-.7 5.4 0 9.9-.5 10.7-1.2.8-.6 4-1.9 7.1-2.8 3.2-.9 6.2-2.4 6.8-3.3.5-.9 1-1.3 1-.8 0 .6 1.4-.3 3-1.9 1.7-1.6 3-2.5 3-2s.6.1 1.3-.9c.7-1 2.5-1.9 4-1.9 1.5-.1 2.7-.6 2.7-1 0-.5.4-.6.9-.2.5.3 1.2.1 1.6-.5.4-.6 2.2-.9 4-.7 4 .5 5.2-1.4 3.6-5.6-1.1-2.8 0-4.1 5.4-6.7 1.7-.8 3.2-1.7 3.5-2 .3-.3 3.7-2.1 7.5-4 3.9-1.9 7.2-3.8 7.3-4.3.2-.4.7-.5 1.2-.2 1 .6 8-7.6 8-9.4 0-.6.5-1.1 1.1-1.1.5 0 .7-.5.4-1-.3-.6-.2-1 .3-1s1.7-1.8 2.7-4c1-2.2 2.2-4 2.7-4s.7-.4.3-.9c-.6-1.1 1.2-2.5 3.7-2.6 2.4-.2 3.1-1 3.3-3.7.4-6 4.1-11.2 6.8-9.7 1.8 1.1 3.2-.5 4.1-4.6 1-4.5 4.8-11.8 7.1-13.5 1.1-.8 3.3-2 5-2.5 2.8-.9 3-1.4 3-5.7 0-3.8.5-5 2.8-6.8 1.5-1.2 2.7-2.8 2.7-3.6 0-.8.5-1.4 1-1.4.6 0 1-.7 1-1.5s.4-1.5.9-1.5c.4 0 .8-1 .7-2.3-.1-2.5 2.4-13.7 3.4-15.2.4-.6.6-2.9.5-5.3 0-2.3.3-4.2.8-4.2.4 0 .6-.4.2-.9-.3-.5-.1-1.2.5-1.6.6-.4.7-1.3.1-2.3-.6-1.1-.5-2.8.2-4.7.7-1.7 1.2-3.9 1.2-5s1-2.9 2.2-4c1.9-1.7 2.4-3.4 2.8-10 1.1-17 2.7-22.5 6.5-22.5 1 0 2.1-.7 2.4-1.6.3-.8 1-1.2 1.6-.9.5.3 1 .1 1-.4 0-.6.6-1.1 1.3-1.1 1.5 0 8-6.9 9.9-10.3.6-1.2 1.7-2.8 2.5-3.5.8-.8 1.1-1.7.8-2-.3-.4-3.4 2.3-6.8 5.9-7.9 8.2-12.4 11.9-14.7 11.9-1.7 0-1.7-.1.1-4 1-2.1 1.9-4.4 1.9-5 0-.5.4-1 .9-1s.7-.9.4-2c-.3-1.1 0-2.6.6-3.4.7-.9.8-2.2.3-3.7-.5-1.3-.7-3-.5-3.7.3-.7 0-1.9-.6-2.6-.6-.7-.9-2-.6-2.8.4-.9 0-2.2-.7-2.9-1.4-1.5-1.8-7.7-.6-9.5 1.1-1.7 1.2-14.5.1-15.3-2.1-1.4-2.1-4.1-.1-6.6 1.2-1.6 2.3-4.9 2.7-8.7.6-4.3 1.3-6.3 2.6-7 1-.6 3.5-2.6 5.6-4.5 3.9-3.5 6.1-3.9 9-1.3 8.6 7.9 8.4 6.2-.5-4.5-2.2-2.7-3.6-3.5-6.1-3.5-3.2 0-3.8-.9-2.4-3.5.3-.6.6-3.7.8-7 .1-3.3.6-6.4 1.1-6.8.4-.5.4-2.3 0-4-.5-1.8-.7-4.8-.6-6.7.1-1.9 0-3.9-.3-4.5-.3-.5-.6-1.6-.7-2.5-.1-.8-.5-2.6-.9-4s-.8-3.5-.9-4.7c-.2-1.3-.5-2.5-.8-2.8-.3-.3-.4-2.8-.1-5.5.2-2.8 0-5-.4-5s-.6-2.3-.4-5.2c.2-4.1.8-5.6 2.9-7.2 3.5-2.7 8.2-7.4 8.2-8.1 0-.3-1.8-.2-4 .1-2.7.4-4 .3-4-.5 0-.6.4-1.1 1-1.1 1.4 0 6.2-9.9 5.4-11.1-.4-.7-1-.7-1.8 0-.7.6-1.6.8-1.9.4-.4-.3-.7 0-.7.7s-.3 1-.6.7c-.4-.3-1.4-.2-2.4.3-1.4.8-1.6.5-1.4-1.3.4-2.5 1.5-26.1 1.6-32.2 0-2.2-.5-4.1-1.1-4.3-.5-.2-.7-1-.4-1.8.3-.8.1-1.4-.5-1.4-.8 0 0-5.5 1.6-10 .3-.8.6-1.7.6-2 .1-.3.4-1 .7-1.5.4-.6.5-3.7.3-7s.1-7 .7-8.2c1.5-2.9 6.6-5 8.2-3.4.6.6 1.7 1.1 2.4 1.1 1.1 0 1-.5-.2-2.3-.8-1.2-1.6-3.3-1.8-4.5-.5-3.3-1.3-3.6-4.5-1.3-2.5 1.8-3.1 1.9-3.6.6-.3-.8-.2-1.5.3-1.5 1.1 0 .7-4.1-.7-6.7-.7-1.2-1.2-3.1-1.2-4.2 0-2.3-1.6-2.9-2.3-.9-.6 1.9-1.5.7-1.9-2.7-.2-1.7-.5-3.2-.8-3.5-.3-.3-1.4-2.4-2.4-4.6-1.6-3.7-1.7-4.6-.4-9.6.8-3.1 1.5-8.2 1.7-11.4.2-4.2.8-6.5 2.2-7.9 1-1.1 3.5-4 5.5-6.5s5.4-5.3 7.5-6.3c2.7-1.2 3.7-2.2 3.2-3.2-.6-1.7-2.7-1.3-7.8 1.3-1.6.9-3.2 1.6-3.5 1.7-.3 0-1 .4-1.7.8-1.5.9-2 0-3.9-6.3-.8-2.7-1.9-5-2.3-5-1.2 0-.1-4.2 1.5-5.7.6-.7 1.4-.9 1.8-.6.3.4.6.2.6-.4 0-1.3 4-.9 6.8.6s3.2 1.4 2.6-.4c-.4-.8-1.2-1.5-2-1.5s-1.4-.5-1.4-1c0-.6-1.3-1-2.8-1-3 0-8.2 2-8.2 3.2 0 3.3-3.7-2.7-4.5-7.2-.4-2.4-4.8-10-6.9-11.9-3-2.8-3.6-8.1-1.1-10.1.8-.7 1.3-1.6 1-2-.7-1.1 1.7-11 2.7-11.1.9-.2 2.5-.5 3.6-.9.4-.1 1-.2 1.4-.1 1.8.2 1.6-4.5-.6-17.7-1.3-7.9-2.7-14.6-3-14.9-.7-.8-1.1 15.3-.5 22.2.1 1.1.1 2.7 0 3.6-.1 2-7 8.9-8.8 8.9-2 0-1.5-4.8.7-7 3.4-3.4 1.9-5.3-3.6-4.4-2.4.3-3.4-.3-5.4-3-1.4-1.9-2.9-3.2-3.4-2.8-.5.3-.6.1-.3-.5.4-.5-.1-1.9-1.1-2.9-.9-1-3.1-4.4-4.7-7.5-1.7-3.1-4.6-7.6-6.5-9.9-2.3-2.8-3.4-5.1-3.2-6.7.2-1.3 0-2.9-.5-3.6-.5-.7-.8-2.6-.7-4.2.1-1.7.2-4.2.3-5.7.1-1.5.8-3.3 1.6-4.2.8-.8 1.5-2.1 1.5-3 0-.8.4-1.7.8-2 .5-.3.9-2 1-3.9.1-3.7-3.7-8.5-5.8-7.2-.8.5-.6 1.1.6 2 1 .7 1.8 1.9 2 2.7.2 1.4-5.7 6-8.2 6.4-1.3.2-2.6-3.6-3.1-9.6-.4-5.1-1-9.5-1.3-9.8-.1-.1-.3-1-.5-2-.4-3.8-5.6-11.8-6.8-10.6-.6.6 2.5 8 3.9 9.4 1 1 .6 12-.5 12-.4 0-4.2-3.3-8.5-7.3-8.9-8.3-14.2-13-17.1-15.1-1.8-1.3-2-2.7-2.2-15-.3-16.9-.2-16.9 8.5-2.1 1.3 2.2 3 4.7 3.7 5.5.7.8 1.8 3.2 2.6 5.2.7 2.1 1.6 3.8 2.1 3.8.4 0 .5.6.2 1.4-.3.7.2 1.6 1 1.9.9.4 1.7-.1 2.1-1.4.4-1 1.1-1.9 1.7-1.9.7 0 .6-.5-.1-1.4-.8-.9-.8-1.6-.2-2 .6-.4.8-1.3.4-2.1-.3-.8-.2-2.3.2-3.3 1.2-2.6 1.5-18.4.4-20.3-.6-1.2-.5-2 .1-2.4.6-.4.7-1.1.3-1.7-.3-.7-.8-3-.9-5.2-.1-2.3-.3-4.1-.4-4.1-.3 0-.7-2.5-1.4-7.5-.2-1.9-1.3-6.3-2.4-9.8-1.1-3.4-1.8-6.2-1.5-6.2.3 0 .1-.6-.4-1.3-.6-.6-1.8-3.7-2.8-6.7-1-3-2.8-7.6-4.1-10.2-1.3-2.6-2.4-4.9-2.4-5 0-.2 1.4-.3 3-.3 1.7-.1 3 .3 3 .7 0 .4.9.8 1.9.8 1.1 0 3 .4 4.3.9 1.3.5 2.5.8 2.8.8.3 0 1.6.6 3 1.3 1.4.8 2.8 1.3 3.3 1.2.4-.1.7.2.7.7 0 .5 1 1.3 2.3 1.7 1.2.4 4.7 3.3 7.8 6.5 5.3 5.5 5.5 5.6 5.3 2.8-.3-4.9-4.4-11.8-9.2-15.7-2.6-2-4.9-4-5-4.5-.2-.4-.8-.5-1.3-.1-.5.3-.9 0-.9-.6s-.4-.9-.9-.5c-.5.3-1.2.1-1.6-.5-.7-1.1-16.8-9-18.4-9-.6 0-1.1-.4-1.1-.9s-.6-.9-1.2-.8c-3.3.1-4.8-.4-4.8-1.7 0-.7-.7-1.9-1.5-2.6-.8-.7-1.2-1.6-.9-2.1.5-.9 4.8-.3 6.9 1 1.2.7 3.4 1.2 5.8 1.4.9.1 1.7.4 1.7.8s2 1.3 4.5 2 4.5 1.7 4.5 2.2c0 .4.4.6.8.3 1.3-.8 24.2 10.3 24.2 11.7 0 .5.4.6.9.2.5-.3 1.5 0 2.3.7.7.7 2.7 2 4.3 2.8 4.5 2.2 13.9 8.2 14.6 9.2.3.6.9.8 1.2.6.3-.1 1.9.9 3.6 2.4 1.7 1.6 3.3 2.8 3.7 2.8.3 0 1.9 1.4 3.6 3 1.6 1.6 3.4 3 3.9 3 .6 0 .8.4.4.9-.3.5.4 1.2 1.5 1.6 1.8.6 2.4 1.7 2.1 3.7 0 .5.3.8.7.8.4 0 .9.8 1 1.7.4 3.6.8 5.3 1.6 6 .4.4.7-.6.5-2.2-.2-1.7 0-3.5.4-4.1.4-.7 0-1.5-.9-1.8-.8-.3-1.3-1-1-1.5.3-.5-.1-1.2-1-1.5-.8-.3-1.3-1-1-1.5.6-.9-3.9-6.6-9.7-12-2.1-2-5.1-4.8-6.6-6.3-1.6-1.5-3.1-2.4-3.5-2.1-.3.4-.6.1-.6-.5 0-.7-.7-1.2-1.5-1.2s-1.5-.5-1.5-1c0-1.1-26.5-19-28.1-19-.5 0-.9-.5-.9-1 0-.6-.7-1-1.5-1s-1.5-.5-1.5-1c0-.6-.7-1-1.5-1-.9 0-1.8-.7-2.1-1.5-.4-.8-.9-1.3-1.3-1.1-.3.2-2.4-.8-4.6-2.3-6.8-4.6-29.5-15-29.5-13.5 0 .3-.7-.1-1.5-1-.9-.8-2.2-1.3-3-1-.8.4-1.5.1-1.5-.6 0-.6-.7-1-1.6-.8-1.4.3-15.8-12.2-15-13 .2-.1 1.3-.4 2.5-.7 1.1-.2 2.6-.7 3.2-1.1.6-.4 2.5-.8 4.3-1.1 4-.5 7-1 7.6-1.3.3-.1 1.6-.3 3-.5 1.4-.1 2.7-.3 3-.4 1-.5 10.6-1.2 18.7-1.4 4.6-.1 8.3-.5 8.3-.9 0-.3 3.7-.6 8.3-.6 10.6.1 29.8-1.1 47.2-2.8 2.8-.3 6.4-.6 8-.8 1.7-.2 3.2-.4 3.5-.6.3-.1 2.1-.3 4-.4 8.5-.5 16-1.9 16-2.9 0-.7 1.4.3 3 2 1.6 1.8 3.7 3.3 4.5 3.3 1.6 0 2-1.2.8-2.4-.8-.8-1-1.3-1.2-4.4-.2-2.9-8.8-11.3-14.4-14-2.9-1.4-5.5-3-5.9-3.6-.4-.6-1-.7-1.4-.3-.4.4-1.4.1-2.3-.6-1.3-1.1-8.4-3.7-11.1-4.2-.3 0-1.1-.4-1.7-.8-.7-.5-1.7-.6-2.2-.2-.5.3-1.2.1-1.6-.5-.3-.5-1.7-1-3.1-1-1.3 0-2.4-.4-2.4-.9s-.9-.7-2-.4c-1.1.3-2 .1-2-.5s-.9-.9-2-.7c-1.1.2-2-.1-2-.6 0-.6-1-.9-2.2-.8-1.3.1-3.2-.1-4.3-.5-5.1-1.9-6.2-2.1-9.7-2.1-2.1.1-3.8-.2-3.8-.5 0-.4-1.7-.8-3.7-.9-2.1-.1-6-.4-8.8-.7-6.7-.7-36.5-1-36.5-.4 0 .3-1.7.6-3.7.8-4.5.2-6.5.6-7.8 1.3-.5.4-1.8.5-2.7.4-1-.2-1.8.1-1.8.6 0 .6-.4.8-.9.4-.5-.3-1.2-.1-1.6.5-.3.5-1.3 1-2.2 1-.8 0-4.1 1.6-7.3 3.5-6.4 3.9-19.1 10.5-20.3 10.5-.6 0 2.9-6 5.8-9.8 3.1-4 10.6-11 13.8-12.7 2-1.1 3.7-2.3 3.7-2.8 0-.4.4-.6.9-.2.5.3 1.6-.2 2.4-1 1.1-1.1 3.1-1.4 7.1-1.1 3 .2 5.8.1 6.1-.2.9-.9 11.5-.8 11.5 0 0 .4 1.1.3 2.4-.2 1.3-.5 2.7-.6 3-.3.3.3 6.1.7 12.8 1 6.8.2 16.6.5 22 .6 8.4.3 10.1.6 13.6 2.9l4 2.7 3.6-3.4c4.2-3.8 4.6-6.9 1.4-11-2.8-3.5-6.7-7.5-7.5-7.5-.3 0-1.6-1.2-2.9-2.8-1.3-1.5-2.4-2.4-2.4-2.1 0 .4-1.7-.9-3.7-2.7-2-1.9-4.3-3.4-5.1-3.4-1.7 0-1.1-2.1.9-3.1.8-.4 4.8-2 8.9-3.5 4.1-1.5 7.7-3 8-3.3.3-.3 1-.6 1.5-.6 1.3 0 13.8-4.7 14.5-5.4.3-.3 1.6-.7 3-.9 1.3-.1 2.7-.6 3-1 .3-.4 1.6-.8 3-1 1.3-.1 2.7-.6 3-1.1.6-1 8.1-3.6 9.4-3.3.4.2 1.5-.3 2.3-1 .8-.7 2.2-1.3 3.1-1.4.8-.2 1.8-.8 2.2-1.5.4-.6 1.2-.9 1.8-.5.6.3 1.3.2 1.7-.4.6-1 4-.9 5.1.2.3.4 1.2.4 2 .1.8-.3 1.4 0 1.4.6s.9 1.1 2 1.1c2.5 0 2.6-2.5.3-3.6-2.3-1-22.3-1.1-22.3-.1 0 .5-.6.5-1.2 0-.7-.4-3-.8-5-.9-2.1-.1-5.3-.2-7-.3l-3.3-.1 2.9-2.3c1.6-1.2 4.8-3.9 7.1-6 2.3-2 4.6-3.7 5.1-3.7s1.7-.8 2.6-1.8c.8-.9 2.7-2.6 4.2-3.7 1.4-1.1 5.5-4.8 9.1-8.2 4.7-4.4 6.5-6.8 6.5-8.6 0-1.4-.4-2.8-.9-3.1-1.8-1.1-9.5 8-9.6 11.2 0 1.6-5.5 4.8-9 5.4-1.1.2-2.3.7-2.7 1.2-.3.5-1.5 1-2.5 1.1-1 0-2.5.5-3.3 1-2.6 1.7-12.1 4.6-13 4-.5-.3-1.1-.1-1.4.4-.3.5-1.9.8-3.6.7-1.6-.1-3 .2-3 .6 0 .5-1.8.6-4.1.3-2.2-.3-4.6-.2-5.2.3-.7.4-1.9.8-2.7.7-.8-.1-2.6.4-4 1-1.4.7-3.1 1-3.7.8-.7-.3-1.3.1-1.3.8 0 .7-.3.9-.7.6-.3-.4-1.2-.2-2 .4-.7.6-1.3.8-1.3.5 0-.4-.7 0-1.6.8-.8.9-2 1.4-2.5 1.1-.5-.4-.9-.1-.9.4 0 .6-.3 1-.7 1-1.3-.3-7.3 2.5-7.3 3.3 0 .4-.7.8-1.5.8s-1.5.4-1.5 1c0 .5-.6 1-1.4 1-.7 0-2.5.9-4 2.1-1.4 1.1-2.6 1.8-2.6 1.5 0-.3-.9.3-2 1.4-1.2 1.2-2.5 1.8-3 1.5-.6-.4-1 .1-1 1s-.4 1.4-.9 1.1c-.4-.3-1.6.3-2.6 1.4-1 1.1-2.1 1.7-2.6 1.4-4.1-2.5-22.1-2.5-27.9.1-5.7 2.5-17.3 9.4-18.2 10.9-.4.6-.8.8-.8.3 0-.4-1.1 0-2.4.8-2.9 1.9-6.5 2.7-8 1.7-.6-.4-1.3-.7-1.6-.8-5-.9-8-1.7-8-2.3 0-.3 1.3-1.5 2.9-2.6 1.6-1 2.8-2.2 2.6-2.5-.1-.3 1.5-1.9 3.6-3.5 2.2-1.7 6.3-4.9 9.1-7.2 4.8-3.9 12.8-8.9 12.8-7.8 0 .3 4.6-2 13.5-6.9 2.6-1.4 8.6-7.1 12.3-11.9l2.9-3.7 2.3 2c1.3 1.1 2.6 2 2.9 2 .7 0 5.9 4.5 11.4 9.7 2 1.9 3.7 3.2 3.7 2.9 0-1.4-2.4-5.1-4.3-6.9-1.1-.9-1.8-1.7-1.4-1.7.3 0-.6-3-2-6.8-1.3-3.7-2.5-7.3-2.5-8-.1-.6-.6-1.2-1.2-1.2-2.9 0 2.3-2.2 15.4-6.4 8-2.6 15.2-5 16-5.3.8-.3 2.4-.8 3.4-1 1.1-.2 2.5-.8 3.3-1.4.7-.6 1.3-.9 1.3-.5 0 .3 2.4-.4 5.3-1.5 2.8-1.2 6.6-2.3 8.2-2.6 1.7-.3 3.3-1 3.7-1.6.4-.7.8-.8.8-.3s.7.3 1.5-.4 1.5-.9 1.5-.5.6.2 1.3-.4c.8-.6 1.7-.8 2-.4.4.3 1.3 0 2.2-.7.8-.7 1.5-1 1.5-.6s1.3 0 2.9-.9c1.7-.8 3.9-1.6 5-1.8 1.1-.2 2.3-.6 2.7-.9.3-.4 1.2-.4 2-.1.8.3 1.4-.1 1.4-.8 0-.7.3-1 .6-.6.4.3 2-.1 3.6-.9s3.3-1.2 3.8-.9c.6.3 1 .2 1-.4 0-.6.6-.8 1.4-.5.8.3 1.7.1 2.1-.5.3-.6 1.6-1.1 2.9-1.1 1.2 0 2.6-.3 3-.8.4-.4 1.6-.8 2.7-.8 1-.1 2-.2 2.2-.4 2-1.6 8.7.7 11.4 4 1.1 1.3 1.4 1.3 2.3 0 .5-.8 1-3.1 1-5.2 0-2.8-.7-4.2-3.1-6.2-1.7-1.4-3.5-2.7-4-2.7-1.2-.2-2.1-.4-3.9-1.2-.8-.3-3.7-.8-6.5-1.2-2.7-.3-6.1-.8-7.5-1.1-1.4-.3-4.1-.6-6.1-.8-2-.2-4.1-.6-4.6-.9-1.8-1.1-27.6-.7-28.8.5-.4.3-1.8.4-3.2.2-1.4-.3-3-.1-3.7.4-.6.5-2 .8-3 .6-1.1-.1-2.5 0-3 .4-.6.3-2 .7-3 .8-1.8.1-1.7-.1.4-1.5 1.3-.9 7.3-6.6 13.3-12.6 6.3-6.3 11.2-10.5 11.4-9.8.3.7 1.1 1.3 1.8 1.3 1.7 0 2.6 3.9 1.4 6.1-.5 1-.5 2-.1 2.3.5.3 1.6-1 2.5-2.9 1.5-3.1 1.5-3.8.2-7-.9-1.9-2-3.5-2.5-3.5-1.3 0 .3-3.1 3-6.3 1.1-1.2 2.1-2.6 2.2-3.2.2-.5 1.3-2 2.5-3.3 1.3-1.4 2-2.8 1.7-3.3-.3-.5 0-.9.6-.9s1.5-1 2.1-2.3c.6-1.3 3.5-3.4 7.4-5.1 6.6-2.9 11.7-6.8 12.8-9.8.3-1-.2-2.7-1.2-4-2-2.4-1.6-3.9 2.4-8.3 1.1-1.3 3.1-4.2 4.4-6.6l2.4-4.2-3.6 2.7c-2 1.5-4 2.5-4.6 2.2-.5-.3-1.1.1-1.4.8-.7 1.7-7.8 3.9-8.7 2.7-.8-1.3-8.1-.5-9.1 1-.5.8-.9.9-.9.4 0-.6-.7-.2-1.5.8-.9 1.3-2.9 2-6.2 2.2-2.6.2-4.8.4-4.8.5 0 .2-2.9.6-7.2 1.2-.7.1-1.3.5-1.3.9 0 .5-.6.6-1.4.3-.8-.3-1.7-.1-2.1.5-.3.6-1.4 1.1-2.3 1.1-1.6 0-30.2 13.8-31.2 15-.3.4-1.6 1.3-3 2s-4.8 3.1-7.6 5.2-5.6 3.8-6.2 3.8c-.5 0-1.2.4-1.4.8-.4 1-7.1 5.7-8.1 5.7-.4 0-1.1.4-1.5 1-1.1 1.5-7 5.5-8.2 5.5-.5 0-1 .4-1 1 0 .5-1.4 1.7-3 2.5-2.7 1.4-3.1 1.4-3.6 0-.3-.8-1-1.2-1.5-.9-.5.3-.9 0-.9-.5 0-.6-.7-1.1-1.5-1.1s-1.5-.4-1.5-.9c0-.8-5.6-2.5-7.4-2.2-.4.1-1.3-.2-2-.7-.6-.5-2.6-.8-4.3-.6-3.9.3-4.3-1.2-1.3-4.6 3.2-3.7 13-18.7 13-19.9 0-.6.3-1.1.8-1.1.4 0 2.9-3.5 5.5-7.8 7.1-11.3 12.4-18.5 18.4-24.8 1.2-1.3 2.8-3.2 3.5-4.3 2-2.8 9.7-11.9 13-15.3 1.4-1.6 2.4-2.8 2.1-2.8-.2 0 .8-1.3 2.4-2.9 1.5-1.6 3.7-4.1 4.8-5.5 2.2-2.9 5.5-6.9 8.8-10.6 1.2-1.4 3.8-4.5 5.7-6.9 1.9-2.4 4.7-5.7 6.3-7.3 1.5-1.6 2.7-3.3 2.7-3.8 0-.4.4-1 .9-1.2 2-.8 12.1-13.8 12.1-15.7 0-1.2-.4-2.1-.8-2.1-.7 0-.8-2.6-.3-6.6 0-.6 1-1 2.1-.9 2.3.2 5.3 3.8 4.2 5-.4.5-.2.5.4.2.6-.3 1.2-3.7 1.3-7.4.2-8.8 1.1-15.6 2.6-19.8.6-1.6.3-1.5-1.4.5-1.1 1.4-2.1 3.3-2.1 4.2 0 .9-.5 2-1 2.3-.6.4-.8 1.1-.4 1.6.3.5 0 1.6-.6 2.4-.7.8-.9 1.5-.5 1.5.3 0-.3 1.2-1.4 2.6-1.2 1.5-2.1 3.3-2.1 4 0 .9-.8 1-2.9.4-1.5-.4-3.5-.4-4.2.1-.8.5-2 .9-2.7.9-1.7 0-.6-3.6 1.9-6.3 1-1.1 1.6-2.4 1.3-2.9-.3-.4 0-.8.6-.8s.8-.5.5-1c-.3-.6-.2-1 .3-1 .8 0 3.9-5.6 4-7.4 0-.5.6-1.2 1.4-1.7 1.8-1.1 1.5-11.4-.5-15.9-1.6-3.7-1.8-3.4-2.1 4.9-.1 4.3-.6 5.7-2.6 7.3-1.4 1-3.3 2.6-4.2 3.3-1 .8-1.8 1.2-1.8.8 0-.3-.8.1-1.7.9-1 .8-4.5 2.9-7.8 4.8-5.3 2.9-30.8 19.5-33.8 22.1-.7.5-3 2.2-5.2 3.9-5 3.6-7.7 5.8-14 11.2-2.7 2.4-5.6 4.7-6.4 5.3-.8.5-4.8 4.3-8.8 8.4l-7.4 7.5.7-4.5c.4-2.4 1-4.9 1.3-5.4.4-.6.6-2.2.5-3.8 0-1.5.3-2.7.8-2.7s.8-.5.6-1.2c-.2-.6.2-1.9 1-2.7 3.6-4.2 6.8-8.2 11.4-14.9 2.9-3.9 5.6-7.2 6-7.2.5 0 .6-.5.3-1-.3-.6.1-1.3.9-1.6.9-.3 1.4-1 1.1-1.4-.5-.7 4.6-6.8 5.2-6.2.2.1 2.3-1.6 4.7-3.9 2.5-2.2 4.6-3.9 4.8-3.7.3.1 2.3-1.5 4.5-3.7 2.1-2.2 6.3-6.1 9.1-8.7 2.9-2.6 5.2-5 5.2-5.5 0-.4 2-2.5 4.5-4.6 2.5-2.1 4.5-4.5 4.5-5.3 0-.9.4-1.3.8-1 1.1.6 9.9-5.1 14.4-9.3 1.8-1.7 3.6-3.1 4.1-3.1.4 0 2-1.2 3.6-2.8 1.6-1.5 7.5-7 13.1-12.2 5.7-5.2 13.3-12.4 17-16 3.8-3.6 7.9-7.4 9.2-8.6 1.2-1.1 3.9-3.8 5.8-6s5.1-4.9 7-6c1.9-1 3.7-2.2 4-2.6.9-1.2 14-7.8 14-7 0 .4.4.2.8-.3 1.7-2.3 9.9-4.5 18-4.8 4.9-.2 7.3-1.8 3.5-2.3-2.5-.4-22.7-.7-23.3-.4-.3.2-2.3.4-4.5.6-5.5.5-9.9 1.2-10.2 1.4-.2.1-.7.4-1.3.5-.5.1-1.1.3-1.2.5-.3.2-2.2.7-4.8 1.3-.8.1-2.6.9-4 1.7-1.4.8-2.8 1.3-3.2 1.2-.5-.1-.8.3-.8 1 0 .6-.3.8-.6.5-.4-.3-1.8.3-3.2 1.3-1.3 1.1-3.1 2-3.8 2-.8 0-1.4.4-1.4 1 0 .5-.7 1-1.5 1s-1.5.4-1.5 1c0 .5-.9 1-2 1s-2 .4-2 1c0 .5-.5 1-1 1-.6 0-2.8 1.1-5 2.5s-4 2.3-4 2c0-.3-1 .3-2.2 1.5-1.2 1.1-2.8 2-3.5 2-.7 0-1.3.4-1.3 1 0 .5-.5 1-1 1-.6 0-2.9 1.2-5.1 2.6-4.8 3-5.8 2.7-2.7-.8 4.5-4.9 7.8-9.3 7.8-10.3 0-.6.9-1.6 2-2.3 1.2-.7 1.8-1.7 1.5-2.1-.2-.5.2-1.1 1-1.5.8-.3 1.5-1.2 1.5-2.1 0-.8.4-1.5 1-1.5.5 0 3-2 5.5-4.5 2.4-2.5 4.8-4.5 5.2-4.4.4 0 .9-.4 1.1-1 .2-.6.1-1.1-.3-1.1-1 0-6.6 3.2-8.7 4.9-1 .8-1.8 1.1-1.8.7 0-.4-1.3.2-2.9 1.3-1.5 1.1-3.1 1.8-3.5 1.4-.3-.3-.6-.1-.6.5 0 1-4 2.8-4.9 2.3-.2-.2-.7.2-1 .8-.4.5-3.6 2.5-7.1 4.4-3.6 1.8-10 5.4-14.2 7.9-4.2 2.5-7.9 4.4-8.2 4-.3-.3-.6-.1-.6.5s-2.8 2.7-6.2 4.8c-6.7 4.2-7.7 5-13.7 10.5-2.3 2.1-4.1 3.6-4.1 3.4 0-.2-.9.5-2 1.6-1.2 1.2-1.8 2.5-1.5 3 .4.6.2 1-.3 1-.4 0-1.7.8-2.8 1.7-1 1-4.6 3.8-7.9 6.3-3.3 2.4-8.2 6.5-10.8 9-6.8 6.4-28.7 28.2-28.7 28.6 0 .1-2.4 2.7-5.2 5.6-2.9 3-7.8 8.2-10.8 11.7-3 3.4-7 7.7-8.7 9.5-1.8 1.8-3.3 3.5-3.3 3.8 0 .2-2.1 2.7-4.6 5.4-2.5 2.7-5.3 6.1-6.2 7.6-.9 1.5-2.2 3-3 3.3-1.1.4-1.3-.3-.8-3.7.4-2.4.8-5.8.9-7.6.1-1.7.5-3.2 1-3.2s.7-.8.6-1.8c-.2-.9.1-3.3.5-5.2.9-3.6 1.5-7.9 1.9-14.2.2-2.1.6-4.1 1-4.4.4-.4.7-2.2.7-3.9 0-1.7.3-3.5.7-3.8.3-.4.8-2.8 1-5.4.8-10.2 1.1-11.9 2.8-15.8 1-2.2 1.7-4.3 1.7-4.8-.1-.4.3-.7.8-.7.6 0 1.8-1.6 2.7-3.5.9-1.9 2.1-3.5 2.5-3.5.5 0 .7-.4.4-.9-.3-.5.1-1.2 1-1.5.8-.3 1.3-1 1-1.5-.4-.5-.2-1.1.2-1.3.5-.1 4.4-5.7 8.7-12.3 4.3-6.6 8.4-12.5 9-13 .7-.6 1.3-1.5 1.3-2 .1-.6.9-1.8 1.7-2.8.8-.9 1.5-2.1 1.5-2.5 0-.5.9-1.8 2-3 1.2-1.2 1.8-2.2 1.5-2.2-.4 0 4.4-6.9 7.5-10.7.6-.7 1-1.6 1-2.2 0-.5.3-1.1.8-1.3.8-.3 7.2-9.6 7.2-10.4 0-.3.8-1.4 1.8-2.5 1.1-1 2.5-3.2 3.3-4.7.8-1.5 2.2-3.6 3.2-4.7s3.2-4.1 4.9-6.7c1.6-2.7 3.4-4.8 3.9-4.8s.8-.3.7-.8c-.2-.7 4.9-9.2 6.1-10.2.4-.3 2.9-3.9 5.6-8 2.7-4.1 5.5-8.1 6.2-8.8.6-.6 1.5-2.1 1.8-3.2.3-1.1 1.1-2 1.6-2s.9-.6.9-1.4c0-.8.4-1.6.8-1.8.4-.2 1.7-1.7 2.7-3.5 5.1-8.2 11.8-17.8 12.6-18.1.5-.2.9-.8.9-1.3 0-.6 2.4-4.5 5.2-8.7 2.9-4.2 5.7-8.5 6.3-9.4 5.1-8.7 11-17.8 11.7-17.8.4 0 .8-.6.8-1.3 0-.7 1.1-2.4 2.4-3.9 1.4-1.4 2.2-2.8 1.9-3.2-.3-.3.2-.8 1.1-1.2.9-.3 1.6-1.2 1.6-2s.5-1.4 1-1.4c.6 0 1-.7 1-1.5s.4-1.5.8-1.5 2.5-2.3 4.6-5c2.1-2.8 6.2-7.5 9.2-10.7 5.3-5.5 6.4-7.3 4.4-7.3-.5 0-1 .4-1 1 0 .5-.6 1-1.3 1-.7 0-2.3.9-3.5 2-1.2 1.2-2.2 1.7-2.2 1.3 0-.4-.4-.4-.8.2-1.1 1.6-11 9.5-11.8 9.5-.3 0-2.1 1.6-4 3.5-1.8 1.9-3.7 3.5-4.3 3.5-.6 0-2.7 1.7-4.8 3.8-2.1 2.1-4.3 4.1-5 4.3-.6.2-6.6 5.5-13.3 11.8-6.7 6.3-14.7 13.7-17.7 16.5-3.1 2.8-6.4 5.9-7.2 7-.9 1-4.5 4.8-8.1 8.5-3.6 3.6-8.7 9.2-11.5 12.5-2.7 3.2-6 6.9-7.2 8.2-1.3 1.2-2.3 2.5-2.3 2.7 0 .4-6.2 7.7-9.7 11.4-1.2 1.3-2 2.3-1.7 2.3.3 0-.8 1.4-2.5 3.1-1.7 1.7-3.1 3.4-3.1 3.8 0 .4-1.5 2.3-3.4 4.3s-3.2 3.9-2.9 4.2c.4.3.2.6-.4.6-.6 0-4 3.9-7.6 8.7-8.4 11.3-9.8 13.1-11.9 15.4-1 1.1-1.5 1.9-1.1 1.9.4 0-.3.9-1.5 2-1.2 1.2-2.2 2.5-2.2 3 0 .6-.5 1-1.1 1-.8 0-.9-1.2-.5-3.8.4-2 .9-7.1 1.2-11.2.2-4.1.7-9.1 1.1-11 .3-1.9.7-6.7.8-10.5.1-3.9.4-7.7.8-8.5.6-1.7.7-2.9.6-10-.1-11 .4-19 1.2-19 .3 0 .9-2.1 1.2-4.8.4-2.6.9-5.7 1.2-7 .7-3.2 1.3-6 2.5-11.7 1.3-6.9 1.8-9 3.5-16.5.8-3.6 1.5-7.5 1.5-8.8 0-1.2.4-2.2.8-2.2.5 0 .8-1.2.7-2.8-.1-1.5.2-3.3.8-3.9.5-.7.7-2.2.4-3.2-.3-1.1-.1-2.1.4-2.3.9-.3 1.6-4.1 2.2-11.1.1-1.5.6-2.7 1-2.7s.7-.6.6-1.3c-.2-.6 0-3 .4-5.2s.8-5.7.9-7.8c.1-2 .5-3.7.8-3.7.3 0 .7-1.9.8-4.3.1-2.3.5-6 .8-8.2.6-3.8.9-6.1 1.7-14.5.2-1.9-.2-8.4-.7-14.4l-1.1-10.9-2.3 5zM634.8 572.5c-.1 1.4-.5 2.5-.9 2.5s-.9 1-1.3 2.2c-.6 2.2-.8 2.1-4-1.7-3.8-4.4-3.3-5.3 3.1-5.4 2.9-.1 3.3.2 3.1 2.4zm-3.5 168.6c5.4.2 7 .6 7.7 2 1.4 2.5 1.5 2.5-4.2 2.6-8.6.3-17.1 1.2-17.7 2-.3.5-1.7 1-3.1 1.1-1.4.2-3.1.9-3.7 1.4-.7.6-1.3.7-1.3.3 0-.4-1-.1-2.2.7-2 1.3-9.5 1.4-10.7.3-.5-.6 11.1-7.9 15.4-9.6 2.3-1 5.9-1.5 8.5-1.3 2.5.1 7.6.4 11.3.5zM609 846.6c-.7.7-1.6 1.1-2.1.8-.8-.5-1.8.1-5.4 3.3-.7.7-1.7 1.3-2.1 1.3-.4 0-2.2 1.1-4 2.5-3.9 3-4.4 3.1-4.4.5 0-1.1.5-2 1-2 .6 0 1-.7 1-1.5s.4-1.5.9-1.5 2-.9 3.3-2c1.2-1.1 4.6-3.6 7.3-5.4l5-3.4.3 3c.2 1.6-.2 3.6-.8 4.4zM1137 227.9c0 1.1 3.1 2.4 3.9 1.6.3-.3-.1-1-.9-1.5-1.9-1.2-3-1.2-3-.1z"/></svg>